<?xml version="1.0" encoding="utf-8"?>
<!-- Generator: Adobe Illustrator 16.0.0, SVG Export Plug-In . SVG Version: 6.00 Build 0)  -->
<!DOCTYPE svg PUBLIC "-//W3C//DTD SVG 1.1//EN" "http://www.w3.org/Graphics/SVG/1.1/DTD/svg11.dtd">
<svg version="1.1" id="Layer_1" xmlns="http://www.w3.org/2000/svg" xmlns:xlink="http://www.w3.org/1999/xlink" x="0px" y="0px"
	 width="128px" height="82px" viewBox="0 0 128 82" enable-background="new 0 0 128 82" xml:space="preserve">
<path class="stroke-color" fill="none" stroke="#2B2A2F" stroke-width="4" stroke-linecap="round" stroke-linejoin="round" stroke-miterlimit="10" d="
	M124.979,60.251c0-13.75-9.104-14.255-9.104-14.255c0.688,0,3.063-2.037,3.063-6.121c0-3.229-2.354-5.792-6.188-5.792
	s-5.75,1.75-5.75,5.583c0,3.833,2.875,6.329,2.875,6.329l-4.432-0.023c-6.063-0.854-5.943-4.978-5.943-4.978
	c-6.375-20.308-13.688-22.12-13.688-22.12s3.063-4.5,3.063-7s0.354-8.938-7.813-8.938s-7.813,8.229-7.813,8.229
	c0.25,4.458,3.5,8.75,3.5,8.75C68.875,20.125,64,41.833,64,41.833s-0.417-6.667-0.417-14.5c0-8.458-11.521-8.333-11.521-8.333
	s2.75-3.562,2.75-8.063s-3.75-8-7.75-8s-8.188,2.792-8.188,7.875S41.004,19,41.004,19C28.921,19,30,29,30,29v10
	c-1.208,5.209-5.103,6.751-5.103,6.751c-1.981,0.999-7.647,1.124-6.272-0.251c1.917-1.917,1.5-5.5,1.5-5.5c0-1.5-1.75-5-5.417-5
	s-5.083,2.979-5.083,5c0,3.334,1.754,5.873,1.754,5.873c-4.583,1.772-7.532,10.482-7.532,10.482"/>
<path class="stroke-color" fill="none" stroke="#2B2A2F" stroke-width="4" stroke-linecap="round" stroke-linejoin="round" stroke-miterlimit="10" d="
	M38,50v23.916c0,0-0.056,6.084,9,6.084c9.283,0,9.25-6.167,9.25-6.167l0.033-23.896"/>
<line class="stroke-color" fill="none" stroke="#2B2A2F" stroke-width="4" stroke-linecap="round" stroke-linejoin="round" stroke-miterlimit="10" x1="47" y1="52" x2="47" y2="80"/>
<path class="stroke-color"  fill="none" stroke="#2B2A2F" stroke-width="4" stroke-linecap="round" stroke-linejoin="round" stroke-miterlimit="10" d="
	M71.875,59.737l0.688,16.888c0,0,1.25,3.375,8.438,3.375s8.813-3.375,8.813-3.375l0.996-17.109"/>
<line class="stroke-color" fill="none" stroke="#2B2A2F" stroke-width="4" stroke-linecap="round" stroke-linejoin="round" stroke-miterlimit="10" x1="81" y1="61" x2="81" y2="80"/>
<path class="stroke-color" fill="none" stroke="#2B2A2F" stroke-width="4" stroke-linecap="round" stroke-linejoin="round" stroke-miterlimit="10" d="
	M107.501,64.855L108,77.526c0,0,1.523,2.474,5,2.474s5-2.521,5-2.521l0.334-12.396"/>
<line class="stroke-color" fill="none" stroke="#2B2A2F" stroke-width="4" stroke-linecap="round" stroke-linejoin="round" stroke-miterlimit="10" x1="113" y1="67" x2="113" y2="80"/>
<path class="stroke-color" fill="none" stroke="#2B2A2F" stroke-width="4" stroke-linecap="round" stroke-linejoin="round" stroke-miterlimit="10" d="
	M10.184,65.916c0,0-1.134,8.875-0.268,11.295C10.75,79.541,13.185,80,15.842,80c4.157,0,5.533-0.459,6.783-2.959
	c0.727-1.453,0.25-9.125-0.625-11.125"/>
<line class="stroke-color" fill="none" stroke="#2B2A2F" stroke-width="4" stroke-linecap="round" stroke-linejoin="round" stroke-miterlimit="10" x1="16" y1="68" x2="16" y2="80"/>
<path class="stroke-color" fill="none" stroke="#EE3135" stroke-width="4" stroke-linecap="round" stroke-linejoin="round" stroke-miterlimit="10" d="
	M36,30v18c0,0,0.5,3.375,10.75,3.375S58,48.25,58,48.25V30"/>
<path class="stroke-color" fill="none" stroke="#EE3135" stroke-width="4" stroke-linecap="round" stroke-linejoin="round" stroke-miterlimit="10" d="
	M75.563,29.438c0,0-6,13.188-8.25,24.063c0,0-0.438,4.063,4.063,5.438c1.199,0.366,17.269,0.738,21.089,0
	c4.849-0.938,3.487-6.563,3.487-6.563S94.375,41.5,87.875,30"/>
<path class="stroke-color" fill="none" stroke="#EE3135" stroke-width="4" stroke-linecap="round" stroke-linejoin="round" stroke-miterlimit="10" d="
	M107.063,53.688l-0.938,8.296c0,0-1.063,2.83,6.875,2.83c7.563,0,6.688-2.251,6.688-2.251l-0.897-7.482"/>
<path class="stroke-color" fill="none" stroke="#EE3135" stroke-width="4" stroke-linecap="round" stroke-linejoin="round" stroke-miterlimit="10" d="
	M12.375,52.125L6.75,64.109c0,0-1.063,1.891,3.438,1.891c4.625,0,13.25,0,13.25,0s2.438-0.813,1.313-2.625
	s-5.313-11.531-5.313-11.531"/>
</svg>
