<?xml version="1.0" encoding="utf-8"?>
<!-- Generator: Adobe Illustrator 16.0.0, SVG Export Plug-In . SVG Version: 6.00 Build 0)  -->
<!DOCTYPE svg PUBLIC "-//W3C//DTD SVG 1.1//EN" "http://www.w3.org/Graphics/SVG/1.1/DTD/svg11.dtd">
<svg version="1.1" id="Layer_1" xmlns="http://www.w3.org/2000/svg" xmlns:xlink="http://www.w3.org/1999/xlink" x="0px" y="0px"
	 width="28px" height="28px" viewBox="0 0 28 28" enable-background="new 0 0 28 28" xml:space="preserve">
<g>
	<path fill="#2B2A2F" d="M26.998,14v13H1.002V14H26.998 M27.998,13H0.002v15h27.996V13L27.998,13z"/>
</g>
<g>
	<path fill="#2B2A2F" d="M14.002,18.271l11.102,8.674L2.901,26.993L14.002,18.271 M14,17L0.002,28l27.996-0.063L14,17L14,17z"/>
</g>
<polygon class="change-fill" fill="#EE3135" points="14,2.219 27.859,13.188 27.859,13.875 14,23.709 0.219,13.859 0.219,13.188 "/>
<path fill="#2B2A2F" d="M14.002,3.271l12.996,10.155v0.06L14.002,22.77L1.043,13.454L14.002,3.271 M14,2L0.002,13v0.938L14,24
	l13.998-10v-1.063L14,2L14,2z"/>
<polygon class="change-fill" fill="#EE3135" points="24.958,14 24.958,7.359 19.75,2.219 3.5,2.219 3.5,14 "/>
<path fill="#2B2A2F" d="M8,6.6C8,6.821,7.821,7,7.6,7H6.4C6.179,7,6,6.821,6,6.6V5.4C6,5.179,6.179,5,6.4,5h1.2
	C7.821,5,8,5.179,8,5.4V6.6z"/>
<path fill="#2B2A2F" d="M8,10.6C8,10.821,7.821,11,7.6,11H6.4C6.179,11,6,10.821,6,10.6V9.4C6,9.179,6.179,9,6.4,9h1.2
	C7.821,9,8,9.179,8,9.4V10.6z"/>
<path fill="#2B2A2F" d="M8,14.6C8,14.82,7.821,15,7.6,15H6.4C6.179,15,6,14.82,6,14.6v-1.2C6,13.18,6.179,13,6.4,13h1.2
	C7.821,13,8,13.18,8,13.4V14.6z"/>
<path fill="#2B2A2F" d="M16,6.6C16,6.821,15.82,7,15.6,7h-5.2C10.179,7,10,6.821,10,6.6V5.4C10,5.179,10.179,5,10.4,5h5.2
	C15.82,5,16,5.179,16,5.4V6.6z"/>
<path fill="#2B2A2F" d="M22,10.6c0,0.221-0.18,0.4-0.4,0.4H10.4c-0.221,0-0.4-0.179-0.4-0.4V9.4C10,9.179,10.179,9,10.4,9h11.2
	C21.82,9,22,9.179,22,9.4V10.6z"/>
<path fill="#2B2A2F" d="M22,14.6c0,0.221-0.18,0.4-0.4,0.4H10.4c-0.221,0-0.4-0.18-0.4-0.4v-1.2c0-0.221,0.179-0.4,0.4-0.4h11.2
	c0.221,0,0.4,0.18,0.4,0.4V14.6z"/>
<g>
	<polygon  fill="none" points="20,7 23.579,7 20,3.42 	"/>
	<path fill="#2B2A2F" d="M25,7h-0.008L20,2.006V2h-0.006H19H4H3v0.908V14h1V2.908h15v5.093h1V8h4v6h1V8h0.001L25,7L25,7z M20,7V3.42
		L23.579,7H20z"/>
</g>
</svg>
