<?xml version="1.0" encoding="utf-8"?>
<!-- Generator: Adobe Illustrator 16.0.0, SVG Export Plug-In . SVG Version: 6.00 Build 0)  -->
<!DOCTYPE svg PUBLIC "-//W3C//DTD SVG 1.1//EN" "http://www.w3.org/Graphics/SVG/1.1/DTD/svg11.dtd">
<svg version="1.1" id="Layer_1" xmlns="http://www.w3.org/2000/svg" xmlns:xlink="http://www.w3.org/1999/xlink" x="0px" y="0px"
	 width="28px" height="28px" viewBox="0 0 28 28" enable-background="new 0 0 28 28" xml:space="preserve">
<g>
	<path fill="#2B2A2F" d="M27,14v13H1.004V14H27 M28,13H0.004v15H28V13L28,13z"/>
</g>
<g>
	<path fill="#2B2A2F" d="M14.004,18.271l11.102,8.674L2.903,26.993L14.004,18.271 M14.002,17L0.004,28L28,27.938L14.002,17
		L14.002,17z"/>
</g>
<polygon class="change-fill" fill="#EE3135" points="14.002,2.417 27.459,12.938 27.459,14 14.002,23 0.458,13.938 0.458,13 "/>
<path fill="#2B2A2F" d="M14,3.271l12.996,10.155v0.06L14,22.77L1.041,13.454L14,3.271 M13.998,2L0,13v0.938L13.998,24l13.998-10
	v-1.063L13.998,2L13.998,2z"/>
</svg>
