<?xml version="1.0" encoding="utf-8"?>
<!-- Generator: Adobe Illustrator 16.0.0, SVG Export Plug-In . SVG Version: 6.00 Build 0)  -->
<!DOCTYPE svg PUBLIC "-//W3C//DTD SVG 1.1//EN" "http://www.w3.org/Graphics/SVG/1.1/DTD/svg11.dtd">
<svg version="1.1" id="Layer_1" xmlns="http://www.w3.org/2000/svg" xmlns:xlink="http://www.w3.org/1999/xlink" x="0px" y="0px"
	 width="28px" height="28px" viewBox="0 0 28 28" enable-background="new 0 0 28 28" xml:space="preserve">
<g>
	<path fill="none" d="M13,17c2.758,0,5-2.242,5-5c0-2.757-2.243-5-5-5s-5,2.243-5,5S10.243,17,13,17z M15.8,13.292
		c-0.563,1.189-1.601,2-2.8,2s-2.236-0.811-2.8-2H15.8z"/>
	<path fill="none" d="M15.833,20h-5.667C8.324,20,5.5,21.609,5.5,23v1h15v-1C20.5,21.609,17.676,20,15.833,20z"/>
	<path fill="#2B2A2F" d="M13,18c3.311,0,6-2.689,6-6c0-3.307-2.688-6-6-6c-3.309,0-6,2.691-6,6C7,15.311,9.691,18,13,18z M13,7
		c2.757,0,5,2.243,5,5c0,2.758-2.242,5-5,5c-2.757,0-5-2.243-5-5S10.243,7,13,7z"/>
	<path fill="#2B2A2F" d="M15.833,19h-5.667C8.081,19,4.5,20.791,4.5,23v2h17v-2C21.5,20.792,17.92,19,15.833,19z M20.5,24h-15v-1
		c0-1.391,2.824-3,4.667-3h5.667c1.843,0,4.667,1.609,4.667,3L20.5,24L20.5,24z"/>
	<path fill="#2B2A2F" d="M13,15.292c1.199,0,2.236-0.811,2.8-2h-5.6C10.764,14.481,11.801,15.292,13,15.292z"/>
</g>
<rect class="change-fill" x="4.8" y="23.8" fill="#EE3135" width="16.4" height="3.4"/>
<rect class="change-fill" x="4.8" y="0.8" fill="#EE3135" width="16.4" height="3.4"/>
<g>
	<path fill="none" d="M21.984,1H6.004c-0.551,0-1,0.449-1,1v24c0,0.552,0.449,1,1,1h15.98c0.553,0,1-0.448,1-1V2
		C22.984,1.449,22.537,1,21.984,1z"/>
	<g>
		<path fill="none" d="M21,1H6.004c-0.551,0-1,0.449-1,1v2H21V1z"/>
		<rect x="5.004" y="5" fill="none" width="15.996" height="18.006"/>
		<path fill="none" d="M22,1.003v25.994c0.545-0.009,0.984-0.45,0.984-0.997V2C22.984,1.454,22.545,1.011,22,1.003z"/>
		<path fill="none" d="M21,24.006H5.004V26c0,0.552,0.449,1,1,1H21V24.006z"/>
		<rect class="change-fill" x="4.8" y="4" fill="#2B2A2F" width="16.4" height="1"/>
		<rect class="change-fill" x="4.8" y="23.006" fill="#2B2A2F" width="16.4" height="1"/>
		<path fill="#2B2A2F" d="M21.984,0H6.004c-1.104,0-2,0.896-2,2v24c0,1.104,0.896,2,2,2h15.98c1.104,0,2-0.896,2-2V2
			C23.984,0.896,23.09,0,21.984,0z M5.004,26v-1.994v-1V5V4V2c0-0.551,0.449-1,1-1H21v3v1v18.006v1V27H6.004
			C5.453,27,5.004,26.552,5.004,26z M22.984,26c0,0.547-0.439,0.988-0.984,0.997V1.003C22.545,1.011,22.984,1.454,22.984,2V26z"/>
	</g>
</g>
</svg>
