<?xml version="1.0" encoding="utf-8"?>
<!-- Generator: Adobe Illustrator 16.0.0, SVG Export Plug-In . SVG Version: 6.00 Build 0)  -->
<!DOCTYPE svg PUBLIC "-//W3C//DTD SVG 1.1//EN" "http://www.w3.org/Graphics/SVG/1.1/DTD/svg11.dtd">
<svg version="1.1" id="Layer_1" xmlns="http://www.w3.org/2000/svg" xmlns:xlink="http://www.w3.org/1999/xlink" x="0px" y="0px"
	 width="28px" height="28px" viewBox="0 0 28 28" enable-background="new 0 0 28 28" xml:space="preserve">
<path fill="#2B2A2F" d="M14,21c8.577,0,13,2.103,13,3s-4.423,3-13,3S1,24.897,1,24S5.423,21,14,21 M14,20c-7.732,0-14,1.791-14,4
	s6.268,4,14,4s14-1.791,14-4S21.732,20,14,20L14,20z"/>
<path class="change-fill" fill="#EE3135" d="M14,2.308c-3.763,0-6.813,3.05-6.813,6.813S13.453,24.692,14,24.692c0.487,0,6.813-11.809,6.813-15.572
	S17.763,2.308,14,2.308z M14,12.25c-1.795,0-3.25-1.455-3.25-3.25S12.205,5.75,14,5.75c1.794,0,3.25,1.455,3.25,3.25
	S15.794,12.25,14,12.25z"/>
<path fill="#2B2A2F" d="M14,3c3.309,0,6,2.691,6,6c0,2.843-4.246,11.43-6.009,14.341C12.242,20.456,8,11.829,8,9
	C8,5.691,10.691,3,14,3 M14,13c2.206,0,4-1.794,4-4s-1.794-4-4-4c-2.206,0-4,1.794-4,4S11.794,13,14,13 M14,2c-3.866,0-7,3.134-7,7
	s6.438,16,7,16c0.5,0,7-12.134,7-16S17.866,2,14,2L14,2z M14,12c-1.657,0-3-1.343-3-3s1.343-3,3-3c1.656,0,3,1.343,3,3
	S15.656,12,14,12L14,12z"/>
</svg>
