<?xml version="1.0" encoding="utf-8"?>
<!-- Generator: Adobe Illustrator 16.0.0, SVG Export Plug-In . SVG Version: 6.00 Build 0)  -->
<!DOCTYPE svg PUBLIC "-//W3C//DTD SVG 1.1//EN" "http://www.w3.org/Graphics/SVG/1.1/DTD/svg11.dtd">
<svg version="1.1" id="Layer_1" xmlns="http://www.w3.org/2000/svg" xmlns:xlink="http://www.w3.org/1999/xlink" x="0px" y="0px"
	 width="128px" height="90px" viewBox="0 0 128 90" enable-background="new 0 0 128 90" xml:space="preserve">
<g>
	<g>
		<path class="change-fill" fill="#2B2A2F" d="M85,4c0.552,0,1,0.449,1,1v37.823c-0.252,2.684-1.587,9.847-5.01,13.271
			C72.914,64.169,59.286,73.592,56,73.996c-3.286-0.404-16.915-9.827-24.99-17.902c-3.398-3.398-4.75-10.591-5.01-13.276V5
			c0-0.551,0.449-1,1-1H85 M85,0H27c-2.761,0-5,2.239-5,5v38c0,0,0.889,10.629,6.182,15.922C35.691,66.432,51.266,78,56,78
			s20.309-11.568,27.818-19.078C89.111,53.629,90,43,90,43V5C90,2.239,87.762,0,85,0L85,0z"/>
	</g>
</g>
<path fill="#FFFFFF" d="M75.754,78.782c-2.222-6.159-6.678-13.185-15.624-16.413c6.05-2.205,12.927-6.612,16.083-15.418
	c2.244,6.087,6.727,13.064,15.678,16.27C85.837,65.443,78.943,69.891,75.754,78.782z"/>
<path class="change-fill" fill="#EE3135" d="M76.159,51.87c2.11,3.981,5.478,8.302,10.804,11.302c-3.934,2.092-8.173,5.414-11.139,10.652
	c-2.102-4.025-5.455-8.373-10.77-11.393C68.986,60.354,73.213,57.061,76.159,51.87 M75.967,36C75.967,62.576,49,62.576,49,62.576
	C75.958,62.576,75.958,90,75.958,90C75.958,63,103,63,103,63C76.208,63,75.967,36,75.967,36L75.967,36z"/>
</svg>
